<svg xmlns="http://www.w3.org/2000/svg" width="1920" height="181" fill="none"><g clip-path="url(#a)"><path fill="#000" d="M512.378 56.777V70h-2.796V59.43h-.077l-3.029 1.899v-2.48l3.274-2.072h2.628Zm-95.046 27V97h-2.796V83.777h2.796Zm4.908 7.49V97h-2.75v-9.917h2.621v1.75h.116a2.772 2.772 0 0 1 1.104-1.37c.517-.34 1.143-.51 1.879-.51.689 0 1.289.151 1.802.453.512.3.91.731 1.194 1.29.284.556.426 1.219.426 1.99V97h-2.75v-5.824c.004-.607-.151-1.08-.465-1.42-.314-.345-.747-.517-1.298-.517-.37 0-.697.08-.981.239-.28.16-.5.392-.659.697-.155.302-.235.665-.239 1.091Zm13.744-4.184v2.066h-5.972v-2.066h5.972Zm-4.616-2.376h2.75v9.246c0 .253.039.451.116.593a.642.642 0 0 0 .323.291c.142.056.306.084.491.084.129 0 .258-.01.387-.032l.297-.058.433 2.046a7.796 7.796 0 0 1-.581.149c-.25.06-.553.097-.911.11-.662.025-1.244-.063-1.743-.265a2.436 2.436 0 0 1-1.156-.943c-.275-.426-.411-.964-.406-1.614v-9.607Zm10.73 12.487c-1.02 0-1.898-.207-2.634-.62a4.245 4.245 0 0 1-1.692-1.77c-.396-.765-.594-1.672-.594-2.718 0-1.02.198-1.915.594-2.685a4.389 4.389 0 0 1 1.672-1.802c.723-.43 1.571-.645 2.544-.645a5.17 5.17 0 0 1 1.827.316 4.04 4.04 0 0 1 1.485.936c.427.418.758.943.995 1.575.237.629.355 1.365.355 2.209v.755h-8.374V91.04h5.785c0-.396-.086-.746-.258-1.052a1.86 1.86 0 0 0-.717-.717 2.044 2.044 0 0 0-1.053-.264c-.417 0-.787.097-1.11.29a2.04 2.04 0 0 0-.749.769 2.175 2.175 0 0 0-.278 1.065v1.62c0 .491.091.915.271 1.272.186.358.446.633.782.827.335.194.734.29 1.194.29.306 0 .586-.043.84-.129.254-.086.471-.215.652-.387.18-.172.318-.383.413-.633l2.544.168a3.475 3.475 0 0 1-.794 1.601c-.396.452-.909.805-1.537 1.06-.624.249-1.345.374-2.163.374Zm9.006-13.417V97h-2.75V83.777h2.75Zm4.863 0V97h-2.75V83.777h2.75ZM458.08 97v-9.917h2.75V97h-2.75Zm1.381-11.196c-.408 0-.759-.135-1.052-.407a1.32 1.32 0 0 1-.433-.987c0-.38.145-.704.433-.975a1.483 1.483 0 0 1 1.052-.414c.409 0 .758.138 1.046.414.293.27.44.596.44.975 0 .383-.147.712-.44.987a1.471 1.471 0 0 1-1.046.407Zm7.95 15.122c-.891 0-1.655-.123-2.292-.368-.633-.241-1.137-.57-1.511-.988a3.034 3.034 0 0 1-.73-1.408l2.544-.342c.078.198.2.383.368.555.168.172.39.31.665.413.28.108.62.162 1.02.162.599 0 1.091-.147 1.479-.44.392-.288.587-.772.587-1.452v-1.814h-.116c-.12.275-.301.536-.542.781a2.732 2.732 0 0 1-.93.6c-.379.156-.831.233-1.356.233a4.073 4.073 0 0 1-2.034-.517c-.607-.348-1.091-.88-1.452-1.594-.358-.72-.536-1.627-.536-2.725 0-1.124.183-2.062.548-2.815.366-.753.853-1.317 1.46-1.692a3.77 3.77 0 0 1 2.008-.561c.555 0 1.02.094 1.394.284.375.185.676.417.904.697.233.275.411.547.536.814h.103v-1.666h2.732v10.014c0 .844-.207 1.55-.62 2.118-.413.568-.986.994-1.718 1.278-.727.288-1.564.433-2.511.433Zm.058-6.134c.443 0 .818-.11 1.123-.33.31-.223.547-.542.71-.955.168-.418.252-.917.252-1.498s-.082-1.085-.245-1.51c-.164-.431-.4-.765-.71-1.002-.31-.236-.687-.355-1.13-.355-.452 0-.833.123-1.143.368-.31.241-.545.577-.704 1.008-.159.43-.239.927-.239 1.491 0 .573.08 1.067.239 1.485.164.413.398.734.704.962.31.224.691.336 1.143.336Zm11.408 2.402c-1.02 0-1.898-.207-2.634-.62a4.245 4.245 0 0 1-1.692-1.77c-.396-.765-.594-1.672-.594-2.718 0-1.02.198-1.915.594-2.685a4.395 4.395 0 0 1 1.672-1.802c.724-.43 1.572-.645 2.544-.645.655 0 1.264.105 1.828.316a4.056 4.056 0 0 1 1.485.936c.426.418.757.943.994 1.575.237.629.355 1.365.355 2.209v.755h-8.374V91.04h5.785c0-.396-.086-.746-.258-1.052a1.854 1.854 0 0 0-.717-.717 2.043 2.043 0 0 0-1.052-.264c-.418 0-.788.097-1.111.29a2.04 2.04 0 0 0-.749.769 2.175 2.175 0 0 0-.278 1.065v1.62c0 .491.091.915.272 1.272.185.358.445.633.781.827.336.194.734.29 1.194.29.306 0 .586-.043.84-.129.254-.086.471-.215.652-.387.181-.172.318-.383.413-.633l2.544.168a3.475 3.475 0 0 1-.794 1.601c-.396.452-.908.805-1.537 1.06-.624.249-1.345.374-2.163.374Zm9.007-5.928V97h-2.751v-9.917h2.621v1.75h.117a2.761 2.761 0 0 1 1.104-1.37c.516-.34 1.143-.51 1.879-.51.688 0 1.289.151 1.801.453.512.3.91.731 1.194 1.29.285.556.427 1.219.427 1.99V97h-2.751v-5.824c.004-.607-.151-1.08-.465-1.42-.314-.345-.747-.517-1.298-.517-.37 0-.697.08-.981.239-.28.16-.499.392-.659.697-.155.302-.234.665-.238 1.091Zm12.949 5.928c-1.015 0-1.889-.216-2.621-.646a4.37 4.37 0 0 1-1.679-1.808c-.387-.77-.581-1.657-.581-2.66 0-1.016.196-1.907.588-2.673.396-.77.957-1.37 1.685-1.801.727-.435 1.593-.652 2.595-.652.866 0 1.623.157 2.273.47.65.315 1.165.756 1.543 1.325.379.568.588 1.235.627 2.001h-2.596c-.073-.495-.267-.893-.581-1.195-.31-.305-.717-.458-1.22-.458a1.84 1.84 0 0 0-1.117.349c-.315.228-.56.561-.736 1-.177.44-.265.971-.265 1.595 0 .633.086 1.171.258 1.615.177.443.424.78.743 1.013a1.84 1.84 0 0 0 1.117.349c.314 0 .596-.065.845-.194.254-.129.463-.316.627-.562.168-.25.277-.548.329-.897h2.596c-.043.758-.25 1.425-.62 2.002a3.745 3.745 0 0 1-1.518 1.343c-.645.322-1.409.484-2.292.484Zm10.619 0c-1.02 0-1.898-.207-2.634-.62a4.245 4.245 0 0 1-1.692-1.77c-.396-.765-.594-1.672-.594-2.718 0-1.02.198-1.915.594-2.685a4.391 4.391 0 0 1 1.673-1.802c.723-.43 1.571-.645 2.544-.645.654 0 1.263.105 1.827.316a4.056 4.056 0 0 1 1.485.936c.426.418.757.943.994 1.575.237.629.355 1.365.355 2.209v.755h-8.374V91.04h5.785c0-.396-.086-.746-.258-1.052a1.847 1.847 0 0 0-.717-.717 2.043 2.043 0 0 0-1.052-.264c-.418 0-.788.097-1.111.29-.318.19-.568.446-.749.769a2.17 2.17 0 0 0-.277 1.065v1.62c0 .491.09.915.271 1.272.185.358.445.633.781.827.336.194.734.29 1.195.29.305 0 .585-.043.839-.129a1.673 1.673 0 0 0 1.065-1.02l2.544.168a3.475 3.475 0 0 1-.794 1.601c-.396.452-.908.805-1.537 1.06-.624.249-1.345.374-2.163.374Zm12.435-6.715v2.182h-6.03V90.48h6.03ZM526.192 97V83.777h5.217c1.003 0 1.857.191 2.563.575a3.89 3.89 0 0 1 1.614 1.581c.375.672.562 1.447.562 2.325 0 .878-.189 1.653-.568 2.324a3.92 3.92 0 0 1-1.647 1.57c-.714.374-1.579.56-2.595.56h-3.325v-2.24h2.873c.538 0 .981-.092 1.33-.277.353-.19.615-.45.788-.781.176-.336.264-.722.264-1.156 0-.44-.088-.822-.264-1.15a1.772 1.772 0 0 0-.788-.768c-.353-.185-.801-.278-1.343-.278h-1.885V97h-2.796Zm15.95.194c-1.003 0-1.87-.213-2.602-.64a4.377 4.377 0 0 1-1.685-1.794c-.396-.77-.594-1.664-.594-2.68 0-1.024.198-1.92.594-2.686a4.324 4.324 0 0 1 1.685-1.795c.732-.43 1.599-.645 2.602-.645s1.868.215 2.596.645a4.309 4.309 0 0 1 1.692 1.795c.396.766.594 1.662.594 2.686 0 1.016-.198 1.91-.594 2.68a4.36 4.36 0 0 1-1.692 1.794c-.728.427-1.593.64-2.596.64Zm.013-2.131c.457 0 .837-.13 1.143-.387.306-.263.536-.62.691-1.072.159-.452.239-.966.239-1.543s-.08-1.092-.239-1.543c-.155-.452-.385-.81-.691-1.072-.306-.263-.686-.394-1.143-.394-.46 0-.848.131-1.162.394-.31.262-.544.62-.704 1.072a4.745 4.745 0 0 0-.232 1.543c0 .576.077 1.09.232 1.543.16.452.394.81.704 1.072.314.258.702.387 1.162.387ZM550.429 97l-2.699-9.917h2.783l1.536 6.663h.091l1.601-6.663h2.731l1.627 6.624h.084l1.511-6.624h2.776L559.778 97h-2.912l-1.704-6.237h-.123L553.334 97h-2.905Zm17.689.194c-1.02 0-1.898-.207-2.634-.62a4.245 4.245 0 0 1-1.692-1.77c-.396-.765-.594-1.672-.594-2.718 0-1.02.198-1.915.594-2.685a4.389 4.389 0 0 1 1.672-1.802c.723-.43 1.571-.645 2.544-.645.654 0 1.263.105 1.827.316a4.04 4.04 0 0 1 1.485.936c.426.418.758.943.995 1.575.236.629.355 1.365.355 2.209v.755h-8.374V91.04h5.785c0-.396-.086-.746-.259-1.052a1.851 1.851 0 0 0-.716-.717 2.047 2.047 0 0 0-1.053-.264c-.417 0-.787.097-1.11.29a2.04 2.04 0 0 0-.749.769 2.164 2.164 0 0 0-.278 1.065v1.62c0 .491.091.915.271 1.272.185.358.446.633.782.827.335.194.733.29 1.194.29a2.6 2.6 0 0 0 .839-.129c.254-.086.472-.215.653-.387.18-.172.318-.383.413-.633l2.544.168a3.475 3.475 0 0 1-.794 1.601c-.397.452-.909.805-1.537 1.06-.624.249-1.345.374-2.163.374Zm6.256-.194v-9.917h2.666v1.73h.104c.18-.615.484-1.08.91-1.395a2.393 2.393 0 0 1 1.472-.477 4.18 4.18 0 0 1 .865.096v2.441a3.583 3.583 0 0 0-.536-.103 4.806 4.806 0 0 0-.626-.046 2.21 2.21 0 0 0-1.085.265 1.947 1.947 0 0 0-.748.723c-.181.31-.272.668-.272 1.072V97h-2.75Zm11.407.194c-1.021 0-1.899-.207-2.635-.62a4.243 4.243 0 0 1-1.691-1.77c-.396-.765-.594-1.672-.594-2.718 0-1.02.198-1.915.594-2.685a4.389 4.389 0 0 1 1.672-1.802c.723-.43 1.571-.645 2.544-.645.654 0 1.263.105 1.827.316a4.056 4.056 0 0 1 1.485.936c.426.418.758.943.994 1.575.237.629.355 1.365.355 2.209v.755h-8.374V91.04h5.785c0-.396-.086-.746-.258-1.052a1.847 1.847 0 0 0-.717-.717 2.043 2.043 0 0 0-1.052-.264c-.418 0-.788.097-1.111.29-.318.19-.568.446-.749.769a2.17 2.17 0 0 0-.277 1.065v1.62c0 .491.09.915.271 1.272.185.358.446.633.781.827.336.194.734.29 1.195.29.305 0 .585-.043.839-.129a1.673 1.673 0 0 0 1.065-1.02l2.544.168a3.475 3.475 0 0 1-.794 1.601c-.396.452-.908.805-1.537 1.06-.624.249-1.345.374-2.162.374Zm9.91-.033a3.745 3.745 0 0 1-2.047-.58c-.607-.392-1.089-.967-1.446-1.725-.353-.761-.53-1.695-.53-2.802 0-1.136.183-2.08.549-2.834.366-.758.853-1.324 1.459-1.698a3.742 3.742 0 0 1 2.008-.569c.556 0 1.018.095 1.389.285.374.185.675.417.904.697.232.275.408.547.529.814h.084v-4.972h2.744V97h-2.712v-1.588h-.116a3.534 3.534 0 0 1-.549.82 2.727 2.727 0 0 1-.91.665c-.37.176-.822.264-1.356.264Zm.872-2.188c.443 0 .817-.12 1.123-.362.31-.245.547-.588.71-1.026.168-.44.252-.954.252-1.544 0-.59-.082-1.102-.245-1.536-.164-.435-.401-.77-.711-1.008-.309-.236-.686-.355-1.129-.355-.452 0-.833.123-1.143.368-.31.246-.545.586-.704 1.02-.159.435-.239.939-.239 1.511 0 .577.08 1.087.239 1.53.164.44.398.784.704 1.034.31.245.691.368 1.143.368ZM471.457 124h-4.687v-13.223h4.726c1.33 0 2.475.265 3.435.794a5.355 5.355 0 0 1 2.214 2.266c.521.986.782 2.165.782 3.539 0 1.377-.261 2.561-.782 3.551a5.37 5.37 0 0 1-2.227 2.279c-.964.529-2.118.794-3.461.794Zm-1.892-2.395h1.776c.826 0 1.521-.147 2.085-.439.569-.297.995-.756 1.279-1.376.288-.624.432-1.429.432-2.414 0-.978-.144-1.776-.432-2.396-.284-.62-.708-1.076-1.272-1.369-.564-.292-1.259-.439-2.086-.439h-1.782v8.433Zm10.29 2.395v-9.917h2.751V124h-2.751Zm1.382-11.196c-.409 0-.76-.135-1.053-.407a1.317 1.317 0 0 1-.432-.987c0-.379.144-.704.432-.975a1.482 1.482 0 0 1 1.053-.414c.409 0 .757.138 1.046.414.292.271.439.596.439.975 0 .383-.147.712-.439.987a1.47 1.47 0 0 1-1.046.407Zm11.732 4.107-2.518.155a1.295 1.295 0 0 0-.277-.581 1.47 1.47 0 0 0-.562-.42 1.9 1.9 0 0 0-.82-.162c-.426 0-.786.091-1.078.272-.293.176-.439.413-.439.71a.76.76 0 0 0 .284.6c.189.164.514.295.975.394l1.795.362c.964.198 1.683.516 2.156.955.474.439.71 1.016.71 1.731 0 .65-.191 1.22-.574 1.711-.379.49-.9.873-1.563 1.149-.658.271-1.418.407-2.279.407-1.313 0-2.359-.274-3.138-.82-.775-.551-1.229-1.3-1.362-2.247l2.705-.142c.082.4.28.706.594.917.314.206.717.31 1.208.31.482 0 .869-.093 1.162-.278.297-.19.447-.433.452-.73a.76.76 0 0 0-.317-.613c-.206-.164-.525-.288-.955-.375l-1.718-.342c-.968-.193-1.689-.529-2.163-1.007-.469-.478-.703-1.087-.703-1.827 0-.637.172-1.186.516-1.647.349-.46.837-.815 1.466-1.065.633-.25 1.373-.374 2.221-.374 1.252 0 2.238.264 2.957.794.723.529 1.145 1.25 1.265 2.163Zm6.348 7.283c-1.015 0-1.889-.216-2.621-.646a4.369 4.369 0 0 1-1.679-1.808c-.387-.77-.581-1.657-.581-2.66 0-1.016.196-1.907.588-2.673a4.366 4.366 0 0 1 1.685-1.801c.727-.435 1.593-.652 2.596-.652.865 0 1.622.157 2.272.471.65.314 1.165.755 1.543 1.323.379.569.588 1.236.627 2.002h-2.596c-.073-.495-.267-.893-.581-1.194-.31-.306-.717-.459-1.22-.459a1.84 1.84 0 0 0-1.117.349c-.315.228-.56.561-.736 1.001-.177.439-.265.97-.265 1.594 0 .633.086 1.171.258 1.614.177.444.424.782.743 1.014a1.84 1.84 0 0 0 1.117.349c.314 0 .596-.065.846-.194.253-.129.462-.316.626-.562.168-.249.277-.548.329-.897h2.596c-.043.758-.25 1.425-.62 2.001a3.739 3.739 0 0 1-1.517 1.343c-.646.323-1.41.485-2.293.485Zm10.581 0c-1.003 0-1.871-.213-2.602-.64a4.368 4.368 0 0 1-1.686-1.794c-.396-.771-.594-1.664-.594-2.68 0-1.024.198-1.92.594-2.686a4.323 4.323 0 0 1 1.686-1.795c.731-.43 1.599-.645 2.602-.645s1.868.215 2.595.645a4.312 4.312 0 0 1 1.692 1.795c.396.766.594 1.662.594 2.686 0 1.016-.198 1.909-.594 2.68a4.357 4.357 0 0 1-1.692 1.794c-.727.427-1.592.64-2.595.64Zm.013-2.131c.456 0 .837-.129 1.142-.387.306-.263.536-.62.691-1.072.16-.452.239-.967.239-1.543 0-.577-.079-1.091-.239-1.543-.155-.452-.385-.81-.691-1.072-.305-.263-.686-.394-1.142-.394-.461 0-.848.131-1.163.394-.31.262-.544.62-.703 1.072a4.743 4.743 0 0 0-.233 1.543c0 .576.078 1.091.233 1.543.159.452.393.809.703 1.072.315.258.702.387 1.163.387Zm15.492-7.98L521.936 124h-3.1l-3.467-9.917h2.906l2.059 7.095h.104l2.053-7.095h2.912Zm5.516 10.111c-1.02 0-1.898-.207-2.634-.62a4.246 4.246 0 0 1-1.692-1.769c-.396-.766-.594-1.673-.594-2.718 0-1.021.198-1.916.594-2.686a4.393 4.393 0 0 1 1.673-1.802c.723-.43 1.571-.645 2.544-.645.654 0 1.263.105 1.827.316a4.055 4.055 0 0 1 1.485.936c.426.418.757.943.994 1.576.237.628.355 1.364.355 2.208v.755h-8.374v-1.704h5.785c0-.396-.086-.747-.258-1.053a1.857 1.857 0 0 0-.717-.717 2.047 2.047 0 0 0-1.052-.264c-.418 0-.788.097-1.111.29-.318.19-.568.446-.749.769a2.17 2.17 0 0 0-.277 1.065v1.621c0 .49.09.914.271 1.272.185.357.445.632.781.826.336.194.734.29 1.195.29.305 0 .585-.043.839-.129a1.67 1.67 0 0 0 1.065-1.02l2.544.168a3.474 3.474 0 0 1-.794 1.601c-.396.452-.908.805-1.537 1.059-.624.25-1.345.375-2.163.375Zm6.256-.194v-9.917h2.667v1.73h.103c.181-.616.484-1.08.911-1.395a2.394 2.394 0 0 1 1.472-.477c.137 0 .286.008.445.025.159.018.299.041.42.071v2.441a3.551 3.551 0 0 0-.536-.103 4.834 4.834 0 0 0-.626-.045c-.405 0-.767.088-1.085.264a1.948 1.948 0 0 0-.749.723c-.181.31-.271.668-.271 1.072V124h-2.751Zm9.349 3.719c-.349 0-.676-.028-.981-.084a3.571 3.571 0 0 1-.749-.2l.619-2.053c.323.099.614.153.872.161.263.009.489-.052.678-.181.194-.129.351-.348.471-.658l.162-.42-3.558-10.201h2.893l2.053 7.283h.103l2.073-7.283h2.912l-3.855 10.989a4.617 4.617 0 0 1-.755 1.394 3.09 3.09 0 0 1-1.195.924c-.482.219-1.063.329-1.743.329ZM805.347 70v-2.014l4.706-4.359c.401-.387.736-.736 1.008-1.046.275-.31.484-.613.626-.91.142-.301.213-.626.213-.975 0-.387-.088-.721-.265-1a1.733 1.733 0 0 0-.723-.653 2.264 2.264 0 0 0-1.039-.232c-.405 0-.758.081-1.059.245a1.691 1.691 0 0 0-.698.704c-.163.305-.245.67-.245 1.091h-2.654c0-.865.196-1.616.588-2.253.392-.637.94-1.13 1.646-1.479.706-.349 1.52-.523 2.441-.523.947 0 1.771.168 2.473.504.706.331 1.255.792 1.646 1.381.392.59.588 1.266.588 2.028 0 .5-.099.992-.297 1.478-.194.487-.54 1.027-1.04 1.621-.499.59-1.203 1.298-2.111 2.124l-1.93 1.892v.09h5.552V70h-9.426Zm-74.605 27h-2.996l4.565-13.223h3.602L740.472 97h-2.996l-3.312-10.201h-.104L730.742 97Zm-.188-5.198h7.077v2.183h-7.077v-2.183Zm14.559 5.36a3.742 3.742 0 0 1-2.046-.582c-.607-.391-1.089-.966-1.447-1.724-.353-.761-.529-1.695-.529-2.802 0-1.136.183-2.08.549-2.834.366-.758.852-1.324 1.459-1.698a3.74 3.74 0 0 1 2.008-.569c.555 0 1.018.095 1.388.285.375.185.676.417.904.697.233.275.409.547.53.814h.084v-4.972h2.744V97h-2.712v-1.588h-.116c-.13.275-.313.548-.549.82a2.732 2.732 0 0 1-.911.665c-.37.176-.822.264-1.356.264Zm.872-2.19c.443 0 .818-.12 1.124-.36.309-.246.546-.588.71-1.027.168-.44.252-.954.252-1.544 0-.59-.082-1.102-.246-1.536-.163-.435-.4-.77-.71-1.008-.31-.236-.687-.355-1.13-.355-.452 0-.833.123-1.143.368-.31.246-.544.586-.703 1.02-.16.435-.239.939-.239 1.511 0 .577.079 1.087.239 1.53.163.44.398.784.703 1.034.31.245.691.368 1.143.368Zm9.77 2.215c-.633 0-1.197-.11-1.692-.329a2.727 2.727 0 0 1-1.175-.988c-.284-.439-.426-.986-.426-1.64 0-.55.101-1.014.304-1.388.202-.374.477-.676.826-.904a4.04 4.04 0 0 1 1.188-.517 9.07 9.07 0 0 1 1.408-.245c.576-.06 1.041-.116 1.394-.168.353-.056.609-.137.769-.245a.54.54 0 0 0 .239-.478v-.039c0-.408-.13-.725-.388-.949-.254-.224-.615-.335-1.085-.335-.495 0-.888.11-1.181.329a1.51 1.51 0 0 0-.581.813l-2.544-.206a3.454 3.454 0 0 1 .762-1.563 3.658 3.658 0 0 1 1.465-1.02c.603-.241 1.3-.361 2.092-.361.551 0 1.079.064 1.582.193.508.13.958.33 1.35.6.396.272.708.62.936 1.047.228.422.342.927.342 1.517V97h-2.608v-1.375h-.078a2.79 2.79 0 0 1-.639.82 2.963 2.963 0 0 1-.962.549 3.984 3.984 0 0 1-1.298.193Zm.788-1.898c.404 0 .762-.08 1.072-.239.31-.163.553-.383.729-.659.177-.275.265-.587.265-.936v-1.052a1.487 1.487 0 0 1-.355.155 6.564 6.564 0 0 1-.497.122c-.185.035-.371.067-.556.097l-.503.071a3.4 3.4 0 0 0-.846.226 1.357 1.357 0 0 0-.562.42c-.133.172-.2.388-.2.646 0 .374.136.66.407.859.275.193.624.29 1.046.29Zm6.84 5.43V87.083h2.712v1.666h.123c.12-.267.294-.539.522-.814a2.76 2.76 0 0 1 .904-.697c.375-.19.84-.284 1.395-.284.723 0 1.39.189 2.002.568.611.374 1.099.94 1.465 1.698.366.753.549 1.698.549 2.834 0 1.106-.179 2.04-.536 2.802-.353.758-.835 1.333-1.446 1.724a3.712 3.712 0 0 1-2.04.581c-.534 0-.988-.088-1.363-.264a2.822 2.822 0 0 1-.91-.665 3.344 3.344 0 0 1-.542-.82h-.084v5.307h-2.751Zm2.692-8.678c0 .59.082 1.104.246 1.544.163.439.4.78.71 1.026.31.241.687.362 1.13.362.448 0 .826-.123 1.136-.368.31-.25.545-.594.704-1.034.164-.443.245-.953.245-1.53 0-.572-.079-1.076-.238-1.51-.16-.435-.394-.775-.704-1.02-.31-.246-.691-.369-1.143-.369-.448 0-.826.119-1.136.355-.306.237-.541.573-.704 1.008-.164.434-.246.947-.246 1.536Zm13.998-4.958v2.066h-5.972v-2.066h5.972Zm-4.617-2.376h2.751v9.246c0 .253.039.451.116.593a.642.642 0 0 0 .323.291c.142.056.306.084.491.084.129 0 .258-.01.387-.032l.297-.058.433 2.046a7.796 7.796 0 0 1-.581.149c-.25.06-.554.097-.911.11-.663.025-1.244-.063-1.743-.265a2.436 2.436 0 0 1-1.156-.943c-.275-.426-.411-.964-.407-1.614v-9.607ZM781.774 97v-9.917h2.75V97h-2.75Zm1.381-11.196a1.49 1.49 0 0 1-1.052-.407 1.32 1.32 0 0 1-.433-.987c0-.38.145-.704.433-.975a1.481 1.481 0 0 1 1.052-.414c.409 0 .758.138 1.046.414.293.27.439.596.439.975 0 .383-.146.712-.439.987a1.471 1.471 0 0 1-1.046.407Zm12.727 1.279L792.415 97h-3.099l-3.467-9.917h2.905l2.06 7.096h.103l2.054-7.096h2.911Zm5.517 10.11c-1.02 0-1.898-.206-2.634-.62a4.245 4.245 0 0 1-1.692-1.768c-.396-.766-.594-1.673-.594-2.719 0-1.02.198-1.915.594-2.685a4.395 4.395 0 0 1 1.672-1.802c.724-.43 1.572-.645 2.544-.645.655 0 1.264.105 1.828.316a4.056 4.056 0 0 1 1.485.936c.426.418.757.943.994 1.575.237.629.355 1.365.355 2.209v.755h-8.374V91.04h5.785c0-.396-.086-.746-.258-1.052a1.854 1.854 0 0 0-.717-.717 2.043 2.043 0 0 0-1.052-.264c-.418 0-.788.097-1.111.29a2.04 2.04 0 0 0-.749.769 2.175 2.175 0 0 0-.278 1.065v1.62c0 .491.091.915.272 1.272.185.358.445.633.781.827.336.194.734.29 1.194.29.306 0 .586-.043.84-.129.254-.086.471-.215.652-.387.181-.172.318-.383.413-.633l2.544.168a3.475 3.475 0 0 1-.794 1.601c-.396.452-.908.805-1.537 1.06-.624.249-1.345.374-2.163.374ZM816.511 97h-4.687V83.777h4.726c1.33 0 2.475.265 3.435.794a5.36 5.36 0 0 1 2.215 2.266c.521.986.781 2.165.781 3.538 0 1.378-.26 2.562-.781 3.552a5.37 5.37 0 0 1-2.228 2.279c-.964.53-2.118.794-3.461.794Zm-1.891-2.395h1.775c.827 0 1.522-.147 2.086-.44.568-.297.994-.755 1.278-1.375.288-.624.433-1.429.433-2.415 0-.977-.145-1.775-.433-2.395-.284-.62-.708-1.076-1.272-1.369-.564-.292-1.259-.439-2.085-.439h-1.782v8.433Zm14.809 2.589c-1.02 0-1.898-.207-2.634-.62a4.245 4.245 0 0 1-1.692-1.77c-.396-.765-.594-1.672-.594-2.718 0-1.02.198-1.915.594-2.685a4.389 4.389 0 0 1 1.672-1.802c.723-.43 1.571-.645 2.544-.645a5.17 5.17 0 0 1 1.827.316 4.04 4.04 0 0 1 1.485.936c.427.418.758.943.995 1.575.236.629.355 1.365.355 2.209v.755h-8.374V91.04h5.785c0-.396-.086-.746-.258-1.052a1.86 1.86 0 0 0-.717-.717 2.044 2.044 0 0 0-1.053-.264c-.417 0-.787.097-1.11.29a2.04 2.04 0 0 0-.749.769 2.175 2.175 0 0 0-.278 1.065v1.62c0 .491.091.915.271 1.272.186.358.446.633.782.827.335.194.734.29 1.194.29.306 0 .586-.043.84-.129.253-.086.471-.215.652-.387.18-.172.318-.383.413-.633l2.544.168a3.475 3.475 0 0 1-.794 1.601c-.396.452-.909.805-1.537 1.06-.624.249-1.345.374-2.163.374Zm14.507-7.283-2.518.155a1.3 1.3 0 0 0-.277-.582 1.478 1.478 0 0 0-.562-.42 1.907 1.907 0 0 0-.82-.16c-.426 0-.786.09-1.078.27-.293.177-.439.414-.439.71a.76.76 0 0 0 .284.601c.189.164.514.295.975.394l1.795.362c.964.198 1.683.516 2.156.955.474.44.71 1.016.71 1.73 0 .65-.191 1.221-.574 1.712-.379.49-.9.873-1.563 1.149-.658.271-1.418.407-2.279.407-1.313 0-2.359-.274-3.138-.82-.775-.551-1.229-1.3-1.362-2.247l2.705-.142c.082.4.28.706.594.917.314.206.717.31 1.208.31.482 0 .869-.093 1.162-.278.297-.19.447-.433.452-.73a.76.76 0 0 0-.317-.613c-.206-.164-.525-.288-.955-.375l-1.718-.342c-.968-.194-1.689-.53-2.163-1.007-.469-.478-.703-1.087-.703-1.827 0-.637.172-1.186.516-1.647.349-.46.837-.815 1.466-1.065.633-.25 1.373-.374 2.221-.374 1.252 0 2.238.264 2.957.794.723.53 1.145 1.25 1.265 2.163ZM845.803 97v-9.917h2.751V97h-2.751Zm1.382-11.196c-.409 0-.76-.135-1.052-.407a1.317 1.317 0 0 1-.433-.987c0-.38.144-.704.433-.975a1.48 1.48 0 0 1 1.052-.414c.409 0 .758.138 1.046.414.293.27.439.596.439.975 0 .383-.146.712-.439.987a1.471 1.471 0 0 1-1.046.407Zm7.949 15.122c-.891 0-1.655-.123-2.292-.368-.632-.241-1.136-.57-1.511-.988a3.041 3.041 0 0 1-.729-1.408l2.544-.342c.077.198.2.383.368.555.168.172.389.31.665.413.28.108.62.162 1.02.162.598 0 1.091-.147 1.479-.44.391-.288.587-.772.587-1.452v-1.814h-.116a2.622 2.622 0 0 1-.542.781 2.741 2.741 0 0 1-.93.6c-.379.156-.831.233-1.356.233a4.07 4.07 0 0 1-2.034-.517c-.607-.348-1.091-.88-1.453-1.594-.357-.72-.536-1.627-.536-2.725 0-1.124.183-2.062.549-2.815.366-.753.852-1.317 1.459-1.692a3.775 3.775 0 0 1 2.008-.561c.556 0 1.021.094 1.395.284.375.185.676.417.904.697.232.275.411.547.536.814h.103v-1.666h2.731v10.014c0 .844-.206 1.55-.62 2.118-.413.568-.985.994-1.717 1.278-.727.288-1.565.433-2.512.433Zm.059-6.134c.443 0 .817-.11 1.123-.33.31-.223.547-.542.71-.955.168-.418.252-.917.252-1.498s-.082-1.085-.245-1.51c-.164-.431-.401-.765-.711-1.002-.309-.236-.686-.355-1.129-.355-.452 0-.833.123-1.143.368-.31.241-.545.577-.704 1.008-.159.43-.239.927-.239 1.491 0 .573.08 1.067.239 1.485.163.413.398.734.704.962.31.224.691.336 1.143.336Zm9.639-3.526V97h-2.751v-9.917h2.622v1.75h.116a2.761 2.761 0 0 1 1.104-1.37c.516-.34 1.143-.51 1.879-.51.688 0 1.289.151 1.801.453.512.3.911.731 1.195 1.29.284.556.426 1.219.426 1.99V97h-2.751v-5.824c.005-.607-.15-1.08-.465-1.42-.314-.345-.746-.517-1.297-.517-.371 0-.698.08-.982.239a1.66 1.66 0 0 0-.658.697c-.155.302-.235.665-.239 1.091Zm16.641 5.928c-.913 0-1.701-.164-2.364-.491-.662-.327-1.172-.77-1.53-1.33a3.48 3.48 0 0 1-.529-1.885c0-.517.103-.975.31-1.376.206-.4.495-.768.865-1.104a11.5 11.5 0 0 1 1.291-1.013l2.564-1.686c.331-.21.574-.432.729-.665.155-.236.233-.493.233-.768 0-.263-.106-.506-.317-.73-.211-.223-.51-.333-.897-.329a1.26 1.26 0 0 0-1.117.62c-.104.18-.155.383-.155.607 0 .275.077.555.232.84.155.283.362.585.62.903.258.314.54.654.846 1.02L888.523 97h-2.867l-5.229-5.824c-.345-.392-.689-.8-1.033-1.227a7.11 7.11 0 0 1-.853-1.368 3.68 3.68 0 0 1-.342-1.582c0-.642.149-1.218.446-1.73a3.24 3.24 0 0 1 1.265-1.215c.542-.3 1.175-.451 1.898-.451.706 0 1.315.144 1.828.432a3.031 3.031 0 0 1 1.607 2.686c0 .624-.155 1.19-.465 1.698-.305.504-.736.956-1.291 1.356l-2.699 1.944c-.366.266-.637.54-.813.82-.173.275-.259.54-.259.794a1.571 1.571 0 0 0 .891 1.44c.285.142.618.213 1.001.213a3.22 3.22 0 0 0 1.375-.317c.457-.215.87-.519 1.24-.91.375-.396.674-.865.898-1.408a4.694 4.694 0 0 0 .335-1.801h2.28c0 .81-.089 1.539-.265 2.189a5.97 5.97 0 0 1-.736 1.691 4.64 4.64 0 0 1-1.079 1.175c-.129.082-.253.16-.374.233-.121.073-.245.15-.374.232a4.677 4.677 0 0 1-1.647.859 6.342 6.342 0 0 1-1.788.265ZM759.101 124v-13.223h5.217c1.003 0 1.858.191 2.563.574a3.904 3.904 0 0 1 1.615 1.582c.374.672.561 1.447.561 2.325 0 .878-.189 1.653-.568 2.324a3.912 3.912 0 0 1-1.646 1.569c-.715.375-1.58.562-2.596.562h-3.325v-2.241h2.873c.538 0 .982-.092 1.33-.277.353-.19.616-.45.788-.782a2.45 2.45 0 0 0 .265-1.155c0-.439-.089-.822-.265-1.15a1.77 1.77 0 0 0-.788-.768c-.353-.185-.8-.277-1.343-.277h-1.885V124h-2.796Zm11.63 0v-9.917h2.666v1.73h.104c.18-.616.484-1.08.91-1.395a2.396 2.396 0 0 1 1.472-.477c.138 0 .286.008.446.025.159.018.299.041.419.071v2.441a3.526 3.526 0 0 0-.536-.103 4.834 4.834 0 0 0-.626-.045c-.405 0-.766.088-1.085.264a1.948 1.948 0 0 0-.749.723c-.18.31-.271.668-.271 1.072V124h-2.75Zm11.368.194c-1.003 0-1.871-.213-2.602-.64a4.368 4.368 0 0 1-1.686-1.794c-.396-.771-.594-1.664-.594-2.68 0-1.024.198-1.92.594-2.686a4.323 4.323 0 0 1 1.686-1.795c.731-.43 1.599-.645 2.602-.645s1.868.215 2.595.645a4.312 4.312 0 0 1 1.692 1.795c.396.766.594 1.662.594 2.686 0 1.016-.198 1.909-.594 2.68a4.357 4.357 0 0 1-1.692 1.794c-.727.427-1.592.64-2.595.64Zm.013-2.131c.456 0 .837-.129 1.142-.387.306-.263.536-.62.691-1.072.16-.452.239-.967.239-1.543 0-.577-.079-1.091-.239-1.543-.155-.452-.385-.81-.691-1.072-.305-.263-.686-.394-1.142-.394-.461 0-.848.131-1.163.394-.31.262-.544.62-.703 1.072a4.743 4.743 0 0 0-.233 1.543c0 .576.078 1.091.233 1.543.159.452.393.809.703 1.072.315.258.702.387 1.163.387Zm11.84-7.98v2.066h-5.972v-2.066h5.972Zm-4.616-2.376h2.751v9.245c0 .254.038.452.116.594a.638.638 0 0 0 .323.291c.142.056.305.084.49.084.129 0 .259-.011.388-.032.129-.026.228-.046.297-.058l.432 2.046a7.597 7.597 0 0 1-.581.149c-.249.06-.553.097-.91.11-.663.025-1.244-.063-1.743-.265a2.431 2.431 0 0 1-1.156-.943c-.276-.426-.411-.964-.407-1.614v-9.607Zm10.692 12.487c-1.003 0-1.871-.213-2.602-.64a4.368 4.368 0 0 1-1.686-1.794c-.396-.771-.594-1.664-.594-2.68 0-1.024.198-1.92.594-2.686a4.323 4.323 0 0 1 1.686-1.795c.731-.43 1.599-.645 2.602-.645s1.868.215 2.595.645a4.312 4.312 0 0 1 1.692 1.795c.396.766.594 1.662.594 2.686 0 1.016-.198 1.909-.594 2.68a4.357 4.357 0 0 1-1.692 1.794c-.727.427-1.592.64-2.595.64Zm.013-2.131c.456 0 .837-.129 1.142-.387.306-.263.536-.62.691-1.072.159-.452.239-.967.239-1.543 0-.577-.08-1.091-.239-1.543-.155-.452-.385-.81-.691-1.072-.305-.263-.686-.394-1.142-.394-.461 0-.848.131-1.163.394-.31.262-.544.62-.703 1.072a4.743 4.743 0 0 0-.233 1.543c0 .576.078 1.091.233 1.543.159.452.393.809.703 1.072.315.258.702.387 1.163.387Zm11.84-7.98v2.066h-5.972v-2.066h5.972Zm-4.616-2.376h2.751v9.245c0 .254.038.452.116.594a.638.638 0 0 0 .323.291c.142.056.305.084.49.084.129 0 .259-.011.388-.032.129-.026.228-.046.297-.058l.432 2.046a7.597 7.597 0 0 1-.581.149c-.25.06-.553.097-.91.11-.663.025-1.244-.063-1.744-.265a2.429 2.429 0 0 1-1.155-.943c-.276-.426-.411-.964-.407-1.614v-9.607Zm8.015 16.012c-.348 0-.675-.028-.981-.084a3.588 3.588 0 0 1-.749-.2l.62-2.053c.323.099.613.153.871.161.263.009.489-.052.678-.181.194-.129.351-.348.472-.658l.161-.42-3.557-10.201h2.892l2.053 7.283h.104l2.072-7.283h2.912l-3.854 10.989a4.619 4.619 0 0 1-.756 1.394 3.087 3.087 0 0 1-1.194.924c-.482.219-1.064.329-1.744.329Zm8.865 0v-13.636h2.712v1.665h.122c.121-.266.295-.538.523-.813a2.76 2.76 0 0 1 .904-.697c.375-.19.839-.284 1.395-.284.723 0 1.39.189 2.001.568.612.374 1.1.94 1.466 1.698.366.753.549 1.698.549 2.834 0 1.106-.179 2.041-.536 2.802-.353.758-.835 1.333-1.446 1.724a3.708 3.708 0 0 1-2.041.581c-.533 0-.988-.088-1.362-.264a2.816 2.816 0 0 1-.91-.665 3.403 3.403 0 0 1-.543-.82h-.084v5.307h-2.75Zm2.692-8.678c0 .59.082 1.104.246 1.543.163.44.4.782.71 1.027.31.241.686.362 1.13.362.447 0 .826-.123 1.136-.368.31-.25.545-.594.704-1.033.163-.444.245-.954.245-1.531 0-.572-.079-1.076-.239-1.511-.159-.434-.394-.774-.704-1.02-.309-.245-.69-.368-1.142-.368-.448 0-.827.119-1.137.355-.305.237-.54.573-.703 1.008-.164.434-.246.947-.246 1.536ZM835.56 124v-9.917h2.75V124h-2.75Zm1.381-11.196a1.49 1.49 0 0 1-1.052-.407 1.315 1.315 0 0 1-.433-.987c0-.379.144-.704.433-.975a1.48 1.48 0 0 1 1.052-.414c.409 0 .758.138 1.046.414.293.271.439.596.439.975 0 .383-.146.712-.439.987a1.468 1.468 0 0 1-1.046.407Zm6.232 5.463V124h-2.751v-9.917h2.622v1.749h.116a2.77 2.77 0 0 1 1.104-1.368c.517-.34 1.143-.51 1.879-.51.689 0 1.289.15 1.801.451.513.302.911.732 1.195 1.292.284.555.426 1.218.426 1.988V124h-2.75v-5.824c.004-.607-.151-1.08-.465-1.42-.315-.345-.747-.517-1.298-.517-.37 0-.697.08-.982.239a1.668 1.668 0 0 0-.658.697c-.155.302-.235.665-.239 1.092Zm12.937 9.659c-.891 0-1.655-.123-2.292-.368-.633-.241-1.137-.571-1.511-.988a3.037 3.037 0 0 1-.73-1.408l2.544-.342c.078.198.2.383.368.555.168.172.39.31.665.413.28.108.62.162 1.02.162.599 0 1.092-.146 1.479-.439.392-.289.588-.773.588-1.453v-1.814h-.117c-.12.275-.301.536-.542.781a2.739 2.739 0 0 1-.93.601c-.379.154-.83.232-1.356.232a4.063 4.063 0 0 1-2.033-.517c-.607-.348-1.092-.88-1.453-1.594-.357-.719-.536-1.627-.536-2.725 0-1.123.183-2.062.549-2.815.366-.753.852-1.317 1.459-1.692a3.773 3.773 0 0 1 2.008-.561c.555 0 1.02.094 1.395.284.374.185.675.417.903.697.233.275.412.547.536.813h.104v-1.665h2.731v10.014c0 .844-.207 1.549-.62 2.118-.413.568-.986.994-1.717 1.278-.728.288-1.565.433-2.512.433Zm.058-6.134c.443 0 .818-.11 1.123-.329.31-.224.547-.543.711-.956.168-.418.252-.917.252-1.498s-.082-1.085-.246-1.511c-.163-.43-.4-.764-.71-1.001-.31-.236-.687-.355-1.13-.355-.452 0-.833.123-1.143.368-.31.241-.544.577-.704 1.008-.159.43-.238.927-.238 1.491 0 .573.079 1.068.238 1.485.164.413.399.734.704.962.31.224.691.336 1.143.336ZM1109.97 70.18c-.97 0-1.83-.165-2.58-.496-.75-.336-1.34-.797-1.77-1.382a3.46 3.46 0 0 1-.67-2.04h2.82c.01.323.12.606.31.852.2.24.46.428.79.562.33.133.7.2 1.1.2.43 0 .81-.076 1.13-.226.33-.15.59-.36.77-.627.19-.266.28-.574.28-.923 0-.353-.1-.665-.3-.936-.19-.276-.47-.49-.84-.646-.36-.155-.79-.232-1.29-.232h-1.23v-2.053h1.23c.42 0 .8-.073 1.12-.22.33-.146.58-.349.76-.607.18-.262.27-.568.27-.917 0-.331-.08-.622-.24-.871a1.548 1.548 0 0 0-.65-.594 2.162 2.162 0 0 0-.99-.213c-.38 0-.72.069-1.04.206-.31.134-.56.325-.75.575-.19.25-.29.542-.3.878h-2.68c.01-.762.23-1.433.65-2.014.42-.582.99-1.036 1.7-1.363.72-.331 1.53-.497 2.44-.497.91 0 1.71.166 2.39.497.69.332 1.22.78 1.6 1.343a3.2 3.2 0 0 1 .56 1.886c.01.74-.22 1.358-.69 1.853-.46.495-1.06.809-1.8.942v.104c.98.124 1.72.462 2.22 1.013.52.547.77 1.231.77 2.053 0 .754-.22 1.423-.66 2.008-.43.586-1.03 1.046-1.8 1.382-.76.336-1.64.504-2.63.504ZM1055.04 97V83.777h5.29c.98 0 1.79.144 2.44.433.65.288 1.14.688 1.46 1.2.33.508.49 1.094.49 1.757 0 .516-.1.97-.31 1.362-.2.387-.49.706-.85.956-.36.245-.77.42-1.23.522v.13c.51.021.98.163 1.42.426.44.262.8.63 1.08 1.104.27.469.41 1.029.41 1.679 0 .701-.17 1.328-.52 1.878-.35.547-.86.98-1.53 1.298-.68.319-1.51.478-2.5.478h-5.65Zm2.79-2.286h2.28c.78 0 1.35-.148 1.71-.445.36-.302.53-.702.53-1.201 0-.366-.08-.689-.26-.969s-.43-.499-.76-.658c-.32-.16-.7-.239-1.15-.239h-2.35v3.512Zm0-5.404h2.08c.38 0 .72-.067 1.02-.2.3-.138.53-.331.71-.581.17-.25.26-.549.26-.897 0-.478-.17-.864-.51-1.156-.33-.293-.81-.44-1.43-.44h-2.13v3.274Zm15.45 3.467v-5.694h2.75V97h-2.64v-1.801h-.11a2.897 2.897 0 0 1-1.11 1.4c-.52.354-1.15.53-1.9.53-.66 0-1.24-.15-1.75-.452-.5-.301-.89-.73-1.18-1.285-.28-.555-.42-1.22-.42-1.995v-6.314h2.75v5.823c0 .586.16 1.049.47 1.389.31.34.72.51 1.24.51.34 0 .65-.076.93-.226.29-.155.52-.383.7-.685.18-.3.27-.673.27-1.117Zm4.86 4.223v-9.917h2.75V97h-2.75Zm1.38-11.196c-.41 0-.76-.135-1.05-.407a1.32 1.32 0 0 1-.44-.987c0-.38.15-.704.44-.975a1.47 1.47 0 0 1 1.05-.414c.41 0 .76.138 1.04.414.3.27.44.596.44.975 0 .383-.14.712-.44.987-.28.272-.63.407-1.04.407Zm6.23-2.027V97H1083V83.777h2.75Zm5.77 13.384c-.76 0-1.44-.193-2.05-.58-.61-.392-1.09-.967-1.45-1.725-.35-.761-.53-1.695-.53-2.802 0-1.136.19-2.08.55-2.834.37-.758.85-1.324 1.46-1.698a3.736 3.736 0 0 1 2.01-.569c.55 0 1.02.095 1.39.285.37.185.67.417.9.697.23.275.41.547.53.814h.09v-4.972h2.74V97h-2.71v-1.588h-.12c-.13.275-.31.548-.55.82-.23.267-.53.488-.91.665-.37.176-.82.264-1.35.264Zm.87-2.188c.44 0 .82-.12 1.12-.362.31-.245.55-.588.71-1.026.17-.44.25-.954.25-1.544 0-.59-.08-1.102-.24-1.536-.17-.435-.4-.77-.71-1.008-.31-.236-.69-.355-1.13-.355-.45 0-.84.123-1.14.368-.31.246-.55.586-.71 1.02-.16.435-.24.939-.24 1.511 0 .577.08 1.087.24 1.53.16.44.4.784.71 1.034.3.245.69.368 1.14.368Zm9.93.22-.07.71a11.17 11.17 0 0 1-.32 1.697 16.79 16.79 0 0 1-.5 1.544c-.16.46-.3.822-.4 1.084h-1.78c.06-.254.15-.609.26-1.065.11-.452.22-.96.32-1.524.1-.564.16-1.138.18-1.724l.04-.723h2.27Zm5.47-9.111v-2.305h10.86v2.305h-4.05V97h-2.76V86.082h-4.05Zm15.58 11.112c-1.02 0-1.89-.207-2.63-.62a4.216 4.216 0 0 1-1.69-1.77c-.4-.765-.6-1.672-.6-2.718 0-1.02.2-1.915.6-2.685.39-.77.95-1.371 1.67-1.802.72-.43 1.57-.645 2.54-.645.66 0 1.27.105 1.83.316.57.207 1.06.519 1.49.936.42.418.75.943.99 1.575.24.629.36 1.365.36 2.209v.755h-8.38V91.04h5.79c0-.396-.09-.746-.26-1.052a1.816 1.816 0 0 0-.72-.717c-.3-.176-.65-.264-1.05-.264-.42 0-.79.097-1.11.29-.32.19-.57.446-.75.769a2.24 2.24 0 0 0-.28 1.065v1.62c0 .491.09.915.27 1.272.19.358.45.633.78.827.34.194.74.29 1.2.29.31 0 .58-.043.84-.129.25-.086.47-.215.65-.387.18-.172.32-.383.41-.633l2.55.168c-.13.611-.4 1.145-.8 1.601-.39.452-.9.805-1.53 1.06-.63.249-1.35.374-2.17.374Zm14.51-7.283-2.52.155a1.278 1.278 0 0 0-.27-.582 1.507 1.507 0 0 0-.57-.42c-.22-.107-.5-.16-.82-.16-.42 0-.78.09-1.07.27-.3.177-.44.414-.44.71 0 .238.09.438.28.601.19.164.52.295.98.394l1.79.362c.97.198 1.68.516 2.16.955.47.44.71 1.016.71 1.73 0 .65-.19 1.221-.58 1.712-.38.49-.9.873-1.56 1.149-.66.271-1.42.407-2.28.407-1.31 0-2.36-.274-3.14-.82-.77-.551-1.23-1.3-1.36-2.247l2.71-.142c.08.4.28.706.59.917.31.206.72.31 1.21.31.48 0 .87-.093 1.16-.278.3-.19.45-.433.45-.73a.76.76 0 0 0-.31-.613c-.21-.164-.53-.288-.96-.375l-1.72-.342c-.97-.194-1.69-.53-2.16-1.007-.47-.478-.7-1.087-.7-1.827 0-.637.17-1.186.51-1.647.35-.46.84-.815 1.47-1.065s1.37-.374 2.22-.374c1.25 0 2.24.264 2.96.794.72.53 1.14 1.25 1.26 2.163Zm7.14-2.828v2.066h-5.97v-2.066h5.97Zm-4.61-2.376h2.75v9.246c0 .253.04.451.11.593.08.138.19.235.33.291.14.056.3.084.49.084.13 0 .26-.01.39-.032.12-.026.22-.045.29-.058l.43 2.046a6.73 6.73 0 0 1-.58.149c-.25.06-.55.097-.91.11-.66.025-1.24-.063-1.74-.265s-.88-.517-1.16-.943c-.27-.426-.41-.964-.4-1.614v-9.607Zm14.49 12.487c-.92 0-1.7-.164-2.37-.491-.66-.327-1.17-.77-1.53-1.33a3.507 3.507 0 0 1-.53-1.885c0-.517.11-.975.31-1.376.21-.4.5-.768.87-1.104.37-.34.8-.678 1.29-1.013l2.56-1.686c.33-.21.58-.432.73-.665.16-.236.24-.493.24-.768 0-.263-.11-.506-.32-.73-.21-.223-.51-.333-.9-.329-.26 0-.48.058-.67.175-.19.111-.34.26-.45.445-.1.18-.15.383-.15.607 0 .275.08.555.23.84.16.283.36.585.62.903.26.314.54.654.85 1.02l6.27 7.193h-2.87l-5.23-5.824c-.34-.392-.69-.8-1.03-1.227-.34-.43-.63-.886-.85-1.368a3.657 3.657 0 0 1-.35-1.582c0-.642.15-1.218.45-1.73.3-.513.72-.918 1.26-1.215.55-.3 1.18-.451 1.9-.451.71 0 1.32.144 1.83.432.52.284.91.663 1.19 1.136.28.47.42.986.42 1.55a3.2 3.2 0 0 1-.47 1.698c-.3.504-.73.956-1.29 1.356l-2.7 1.944c-.36.266-.63.54-.81.82-.17.275-.26.54-.26.794 0 .314.08.596.23.846.16.25.38.447.66.593.29.142.62.213 1 .213.47 0 .93-.105 1.38-.316.45-.215.87-.519 1.24-.91.37-.396.67-.865.89-1.408.23-.542.34-1.143.34-1.801h2.28c0 .81-.09 1.539-.27 2.189a5.88 5.88 0 0 1-.73 1.691c-.32.478-.67.87-1.08 1.175-.13.082-.25.16-.37.233-.12.073-.25.15-.38.232-.49.396-1.04.683-1.64.859a6.37 6.37 0 0 1-1.79.265ZM1062.31 124h-4.68v-13.223h4.72c1.33 0 2.48.265 3.44.794.96.525 1.7 1.281 2.21 2.266.52.986.78 2.165.78 3.539 0 1.377-.26 2.561-.78 3.551a5.332 5.332 0 0 1-2.23 2.279c-.96.529-2.11.794-3.46.794Zm-1.89-2.395h1.78c.82 0 1.52-.147 2.08-.439.57-.297 1-.756 1.28-1.376.29-.624.43-1.429.43-2.414 0-.978-.14-1.776-.43-2.396a2.797 2.797 0 0 0-1.27-1.369c-.56-.292-1.26-.439-2.09-.439h-1.78v8.433Zm14.81 2.589c-1.02 0-1.9-.207-2.63-.62a4.217 4.217 0 0 1-1.69-1.769c-.4-.766-.6-1.673-.6-2.718 0-1.021.2-1.916.6-2.686a4.34 4.34 0 0 1 1.67-1.802c.72-.43 1.57-.645 2.54-.645.66 0 1.27.105 1.83.316.57.206 1.06.519 1.48.936.43.418.76.943 1 1.576.24.628.35 1.364.35 2.208v.755h-8.37v-1.704h5.78c0-.396-.08-.747-.25-1.053a1.965 1.965 0 0 0-.72-.717c-.3-.176-.65-.264-1.05-.264-.42 0-.79.097-1.11.29-.32.19-.57.446-.75.769-.18.318-.28.673-.28 1.065v1.621c0 .49.09.914.27 1.272.19.357.45.632.78.826.34.194.74.29 1.2.29.3 0 .58-.043.84-.129.25-.086.47-.215.65-.387.18-.172.32-.383.41-.633l2.55.168c-.13.611-.4 1.145-.8 1.601-.39.452-.91.805-1.54 1.059-.62.25-1.34.375-2.16.375Zm6.26 3.525v-13.636h2.71v1.665h.12c.12-.266.3-.538.52-.813.24-.28.54-.512.91-.697.37-.19.84-.284 1.39-.284a3.7 3.7 0 0 1 2 .568c.62.374 1.1.94 1.47 1.698.37.753.55 1.698.55 2.834 0 1.106-.18 2.041-.54 2.802-.35.758-.83 1.333-1.44 1.724-.61.388-1.29.581-2.04.581-.54 0-.99-.088-1.37-.264a2.86 2.86 0 0 1-.91-.665 3.783 3.783 0 0 1-.54-.82h-.08v5.307h-2.75Zm2.69-8.678c0 .59.08 1.104.25 1.543.16.44.4.782.71 1.027.31.241.68.362 1.13.362.44 0 .82-.123 1.13-.368.31-.25.55-.594.71-1.033.16-.444.24-.954.24-1.531 0-.572-.08-1.076-.24-1.511-.16-.434-.39-.774-.7-1.02-.31-.245-.69-.368-1.14-.368-.45 0-.83.119-1.14.355-.31.237-.54.573-.7 1.008-.17.434-.25.947-.25 1.536Zm11.47-8.264V124h-2.75v-13.223h2.75Zm6.6 13.417c-1.01 0-1.87-.213-2.61-.64a4.367 4.367 0 0 1-1.68-1.794c-.4-.771-.6-1.664-.6-2.68 0-1.024.2-1.92.6-2.686.39-.77.96-1.369 1.68-1.795.74-.43 1.6-.645 2.61-.645 1 0 1.86.215 2.59.645.73.426 1.3 1.025 1.69 1.795.4.766.6 1.662.6 2.686 0 1.016-.2 1.909-.6 2.68a4.327 4.327 0 0 1-1.69 1.794c-.73.427-1.59.64-2.59.64Zm.01-2.131c.46 0 .84-.129 1.14-.387.31-.263.54-.62.69-1.072.16-.452.24-.967.24-1.543 0-.577-.08-1.091-.24-1.543-.15-.452-.38-.81-.69-1.072-.3-.263-.68-.394-1.14-.394-.46 0-.85.131-1.16.394-.31.262-.55.62-.71 1.072-.15.452-.23.966-.23 1.543 0 .576.08 1.091.23 1.543.16.452.4.809.71 1.072.31.258.7.387 1.16.387Zm7.94 5.656c-.35 0-.67-.028-.98-.084-.3-.052-.55-.118-.75-.2l.62-2.053c.33.099.62.153.87.161a1.1 1.1 0 0 0 .68-.181c.2-.129.35-.348.47-.658l.17-.42-3.56-10.201h2.89l2.05 7.283h.11l2.07-7.283h2.91l-3.85 10.989c-.19.534-.44.998-.76 1.394a3.06 3.06 0 0 1-1.19.924c-.49.219-1.07.329-1.75.329Zm8.87-3.719v-9.917h2.62v1.749h.12c.2-.581.55-1.039 1.03-1.375.48-.336 1.06-.503 1.73-.503.68 0 1.26.17 1.74.51.47.335.79.792.95 1.368h.1c.21-.568.57-1.022 1.1-1.362.54-.344 1.17-.516 1.89-.516.93 0 1.68.294 2.26.884.58.585.87 1.416.87 2.492V124h-2.75v-6.127c0-.551-.14-.965-.43-1.24-.3-.275-.66-.413-1.1-.413-.5 0-.89.159-1.17.478-.28.314-.42.729-.42 1.246V124h-2.67v-6.185c0-.487-.14-.874-.42-1.163-.27-.288-.64-.432-1.09-.432-.3 0-.58.077-.82.232-.25.151-.44.364-.58.639-.14.272-.21.59-.21.956V124h-2.75Zm21.01.194c-1.02 0-1.9-.207-2.63-.62a4.24 4.24 0 0 1-1.7-1.769c-.39-.766-.59-1.673-.59-2.718 0-1.021.2-1.916.59-2.686a4.43 4.43 0 0 1 1.68-1.802c.72-.43 1.57-.645 2.54-.645.65 0 1.26.105 1.83.316.57.206 1.06.519 1.48.936.43.418.76.943 1 1.576.23.628.35 1.364.35 2.208v.755h-8.37v-1.704h5.78c0-.396-.08-.747-.26-1.053a1.867 1.867 0 0 0-.71-.717c-.3-.176-.65-.264-1.05-.264-.42 0-.79.097-1.11.29-.32.19-.57.446-.75.769-.18.318-.28.673-.28 1.065v1.621c0 .49.09.914.27 1.272.18.357.45.632.78.826.34.194.73.29 1.2.29.3 0 .58-.043.83-.129.26-.086.48-.215.66-.387.18-.172.32-.383.41-.633l2.54.168a3.477 3.477 0 0 1-.79 1.601c-.4.452-.91.805-1.54 1.059-.62.25-1.34.375-2.16.375Zm9.01-5.927V124h-2.75v-9.917h2.62v1.749h.11a2.76 2.76 0 0 1 1.11-1.368c.51-.34 1.14-.51 1.88-.51.69 0 1.29.15 1.8.451.51.302.91.732 1.19 1.292.29.555.43 1.218.43 1.988V124h-2.75v-5.824c0-.607-.15-1.08-.47-1.42-.31-.345-.74-.517-1.29-.517-.37 0-.7.08-.99.239-.28.159-.5.392-.65.697-.16.302-.24.665-.24 1.092Zm13.74-4.184v2.066h-5.97v-2.066h5.97Zm-4.62-2.376h2.75v9.245c0 .254.04.452.12.594.08.138.19.235.32.291.15.056.31.084.49.084.13 0 .26-.011.39-.032.13-.026.23-.046.3-.058l.43 2.046c-.14.043-.33.093-.58.149-.25.06-.55.097-.91.11-.66.025-1.24-.063-1.74-.265s-.88-.517-1.16-.943c-.27-.426-.41-.964-.41-1.614v-9.607Zm246.5-44.031v-2.202l5.52-8.697h1.9v3.047h-1.12l-3.48 5.508v.103h7.84v2.24h-10.66Zm6.35 2.324v-2.996l.05-.975v-9.252h2.62V70h-2.67Zm-90.57 18.406h-2.83c-.05-.366-.16-.69-.32-.975a2.477 2.477 0 0 0-.61-.736 2.697 2.697 0 0 0-.87-.465 3.277 3.277 0 0 0-1.05-.161c-.68 0-1.28.17-1.79.51-.5.336-.9.827-1.18 1.472-.28.641-.42 1.42-.42 2.337 0 .943.14 1.735.42 2.376.29.642.68 1.126 1.19 1.453.51.327 1.1.49 1.76.49.38 0 .72-.049 1.04-.148.32-.099.61-.243.86-.432.25-.194.46-.428.62-.704.17-.275.28-.59.35-.943l2.83.013a5.333 5.333 0 0 1-.55 1.757c-.29.56-.68 1.06-1.17 1.504a5.59 5.59 0 0 1-1.74 1.046c-.68.254-1.43.38-2.28.38-1.18 0-2.24-.266-3.17-.8-.92-.534-1.65-1.306-2.19-2.318-.54-1.011-.8-2.236-.8-3.674 0-1.442.27-2.668.81-3.68.54-1.011 1.28-1.782 2.21-2.311.93-.534 1.97-.8 3.14-.8.76 0 1.47.107 2.13.322.66.215 1.24.53 1.75.943.51.409.92.91 1.24 1.504.32.594.53 1.274.62 2.04Zm6.34 8.788c-1 0-1.87-.213-2.6-.64a4.395 4.395 0 0 1-1.69-1.794c-.39-.77-.59-1.664-.59-2.68 0-1.024.2-1.92.59-2.686.4-.77.96-1.369 1.69-1.795.73-.43 1.6-.645 2.6-.645s1.87.215 2.6.645a4.342 4.342 0 0 1 1.69 1.795c.39.766.59 1.662.59 2.686 0 1.016-.2 1.91-.59 2.68a4.39 4.39 0 0 1-1.69 1.794c-.73.427-1.6.64-2.6.64Zm.01-2.131c.46 0 .84-.13 1.15-.387.3-.263.53-.62.69-1.072.16-.452.24-.966.24-1.543s-.08-1.092-.24-1.543c-.16-.452-.39-.81-.69-1.072-.31-.263-.69-.394-1.15-.394-.46 0-.84.131-1.16.394-.31.262-.54.62-.7 1.072-.16.451-.24.966-.24 1.543 0 .576.08 1.09.24 1.543.16.452.39.81.7 1.072.32.258.7.387 1.16.387Zm9.32-3.797V97h-2.75v-9.917h2.62v1.75h.12c.22-.577.58-1.034 1.1-1.37.52-.34 1.14-.51 1.88-.51.69 0 1.29.151 1.8.453.51.3.91.731 1.2 1.29.28.556.42 1.219.42 1.99V97h-2.75v-5.824c.01-.607-.15-1.08-.46-1.42-.32-.345-.75-.517-1.3-.517-.37 0-.7.08-.98.239-.28.16-.5.392-.66.697-.16.302-.24.665-.24 1.091Zm13.74-4.183v2.066h-5.97v-2.066h5.97Zm-4.61-2.376h2.75v9.246c0 .253.04.451.11.593.08.138.19.235.33.291.14.056.3.084.49.084.13 0 .26-.01.38-.032l.3-.058.43 2.046a6.73 6.73 0 0 1-.58.149c-.25.06-.55.097-.91.11-.66.025-1.24-.063-1.74-.265s-.88-.517-1.16-.943c-.27-.426-.41-.964-.4-1.614v-9.607ZM1351.6 97v-9.917h2.75V97h-2.75Zm1.39-11.196c-.41 0-.76-.135-1.06-.407a1.347 1.347 0 0 1-.43-.987c0-.38.15-.704.43-.975.3-.276.65-.414 1.06-.414.4 0 .75.138 1.04.414.29.27.44.596.44.975 0 .383-.15.712-.44.987-.29.272-.64.407-1.04.407Zm6.23 5.462V97h-2.75v-9.917h2.62v1.75h.11c.22-.577.59-1.034 1.11-1.37.52-.34 1.14-.51 1.88-.51.69 0 1.29.151 1.8.453.51.3.91.731 1.19 1.29.29.556.43 1.219.43 1.99V97h-2.75v-5.824c0-.607-.15-1.08-.47-1.42-.31-.345-.74-.517-1.29-.517-.37 0-.7.08-.98.239-.28.16-.5.392-.66.697-.16.302-.24.665-.24 1.091Zm14.83 1.511v-5.694h2.75V97h-2.64v-1.801h-.11a2.897 2.897 0 0 1-1.11 1.4c-.52.354-1.15.53-1.9.53-.66 0-1.24-.15-1.75-.452-.5-.301-.89-.73-1.18-1.285-.28-.555-.42-1.22-.42-1.995v-6.314h2.75v5.823c0 .586.16 1.049.47 1.389.31.34.72.51 1.24.51.34 0 .65-.076.93-.226.29-.155.53-.383.7-.685.18-.3.27-.673.27-1.117Zm9.34 4.417c-1.01 0-1.87-.213-2.6-.64a4.395 4.395 0 0 1-1.69-1.794c-.4-.77-.59-1.664-.59-2.68 0-1.024.19-1.92.59-2.686.4-.77.96-1.369 1.69-1.795.73-.43 1.59-.645 2.6-.645 1 0 1.87.215 2.59.645a4.28 4.28 0 0 1 1.69 1.795c.4.766.6 1.662.6 2.686 0 1.016-.2 1.91-.6 2.68a4.33 4.33 0 0 1-1.69 1.794c-.72.427-1.59.64-2.59.64Zm.01-2.131c.46 0 .84-.13 1.14-.387.31-.263.54-.62.69-1.072.16-.452.24-.966.24-1.543s-.08-1.092-.24-1.543c-.15-.452-.38-.81-.69-1.072-.3-.263-.68-.394-1.14-.394-.46 0-.85.131-1.16.394-.31.262-.55.62-.71 1.072a4.88 4.88 0 0 0-.23 1.543c0 .576.08 1.09.23 1.543.16.452.4.81.71 1.072.31.258.7.387 1.16.387Zm12.93-2.286v-5.694h2.75V97h-2.64v-1.801h-.11a2.897 2.897 0 0 1-1.11 1.4c-.52.354-1.15.53-1.9.53-.66 0-1.24-.15-1.75-.452-.5-.301-.89-.73-1.18-1.285-.28-.555-.42-1.22-.42-1.995v-6.314h2.75v5.823c0 .586.16 1.049.47 1.389.31.34.72.51 1.24.51.34 0 .65-.076.93-.226.29-.155.52-.383.7-.685.18-.3.27-.673.27-1.117Zm13.11-2.866-2.52.155a1.296 1.296 0 0 0-.28-.582 1.47 1.47 0 0 0-.56-.42 1.91 1.91 0 0 0-.82-.16c-.43 0-.79.09-1.08.27-.29.177-.44.414-.44.71 0 .238.1.438.29.601.19.164.51.295.97.394l1.8.362c.96.198 1.68.516 2.15.955.48.44.71 1.016.71 1.73 0 .65-.19 1.221-.57 1.712-.38.49-.9.873-1.56 1.149-.66.271-1.42.407-2.28.407-1.32 0-2.36-.274-3.14-.82-.78-.551-1.23-1.3-1.36-2.247l2.7-.142c.08.4.28.706.6.917.31.206.71.31 1.2.31.48 0 .87-.093 1.17-.278.29-.19.44-.433.45-.73a.77.77 0 0 0-.32-.613c-.21-.164-.52-.288-.95-.375l-1.72-.342c-.97-.194-1.69-.53-2.17-1.007-.46-.478-.7-1.087-.7-1.827 0-.637.17-1.186.52-1.647.35-.46.83-.815 1.46-1.065.64-.25 1.38-.374 2.22-.374 1.26 0 2.24.264 2.96.794.72.53 1.15 1.25 1.27 2.163Zm6.03 7.089V83.777h2.8v10.918h5.67V97h-8.47Zm14.7.194c-1.02 0-1.9-.207-2.64-.62a4.278 4.278 0 0 1-1.69-1.77c-.4-.765-.59-1.672-.59-2.718 0-1.02.19-1.915.59-2.685.4-.77.95-1.371 1.67-1.802.73-.43 1.57-.645 2.55-.645.65 0 1.26.105 1.82.316.57.207 1.07.519 1.49.936.42.418.76.943.99 1.575.24.629.36 1.365.36 2.209v.755h-8.38V91.04h5.79c0-.396-.09-.746-.26-1.052a1.816 1.816 0 0 0-.72-.717c-.3-.176-.65-.264-1.05-.264-.42 0-.79.097-1.11.29-.32.19-.57.446-.75.769a2.24 2.24 0 0 0-.28 1.065v1.62c0 .491.09.915.28 1.272.18.358.44.633.78.827.33.194.73.29 1.19.29.31 0 .59-.043.84-.129.25-.086.47-.215.65-.387.18-.172.32-.383.42-.633l2.54.168a3.478 3.478 0 0 1-.79 1.601c-.4.452-.91.805-1.54 1.06-.63.249-1.35.374-2.16.374Zm9.08-.007c-.63 0-1.2-.11-1.69-.329-.5-.224-.89-.553-1.18-.988-.28-.439-.42-.986-.42-1.64 0-.55.1-1.014.3-1.388.2-.374.48-.676.83-.904.35-.228.74-.4 1.18-.517a9.16 9.16 0 0 1 1.41-.245c.58-.06 1.04-.116 1.4-.168.35-.056.61-.137.77-.245a.554.554 0 0 0 .23-.478v-.039c0-.408-.12-.725-.38-.949-.26-.224-.62-.335-1.09-.335-.49 0-.89.11-1.18.329-.29.215-.49.486-.58.813l-2.54-.206c.12-.603.38-1.124.76-1.563.38-.443.86-.783 1.46-1.02.61-.241 1.3-.361 2.1-.361.55 0 1.07.064 1.58.193.5.13.95.33 1.35.6.39.272.7.62.93 1.047.23.422.34.927.34 1.517V97h-2.6v-1.375h-.08c-.16.31-.37.583-.64.82a3.05 3.05 0 0 1-.96.549c-.38.129-.81.193-1.3.193Zm.79-1.898c.4 0 .76-.08 1.07-.239.31-.163.55-.383.73-.659.18-.275.26-.587.26-.936v-1.052c-.08.056-.2.107-.35.155a6.43 6.43 0 0 1-.5.122c-.18.035-.37.067-.55.097l-.51.071c-.32.048-.6.123-.84.226-.24.104-.43.244-.57.42-.13.172-.2.388-.2.646 0 .374.14.66.41.859.28.193.63.29 1.05.29Zm6.84 1.711v-9.917h2.66v1.73h.11c.18-.615.48-1.08.91-1.395.42-.318.91-.477 1.47-.477a3.767 3.767 0 0 1 .87.097v2.44a3.654 3.654 0 0 0-.54-.103 4.89 4.89 0 0 0-.63-.046c-.4 0-.76.089-1.08.265a1.88 1.88 0 0 0-.75.723c-.18.31-.27.668-.27 1.072V97h-2.75Zm10.1-5.734V97h-2.75v-9.917h2.62v1.75h.11c.22-.577.59-1.034 1.11-1.37.51-.34 1.14-.51 1.88-.51.69 0 1.29.151 1.8.453.51.3.91.731 1.19 1.29.29.556.43 1.219.43 1.99V97h-2.75v-5.824c0-.607-.15-1.08-.47-1.42-.31-.345-.74-.517-1.29-.517-.37 0-.7.08-.99.239-.28.16-.49.392-.65.697-.16.302-.24.665-.24 1.091Zm8.47 5.734v-9.917h2.75V97h-2.75Zm1.38-11.196c-.41 0-.76-.135-1.05-.407a1.32 1.32 0 0 1-.44-.987c0-.38.15-.704.44-.975a1.47 1.47 0 0 1 1.05-.414c.41 0 .76.138 1.04.414.3.27.44.596.44.975 0 .383-.14.712-.44.987-.28.272-.63.407-1.04.407Zm6.23 5.462V97h-2.75v-9.917h2.62v1.75h.12c.22-.577.58-1.034 1.1-1.37.52-.34 1.14-.51 1.88-.51.69 0 1.29.151 1.8.453.51.3.91.731 1.2 1.29.28.556.42 1.219.42 1.99V97h-2.75v-5.824c.01-.607-.15-1.08-.46-1.42-.32-.345-.75-.517-1.3-.517-.37 0-.7.08-.98.239-.28.16-.5.392-.66.697-.16.302-.24.665-.24 1.091Zm12.94 9.66c-.89 0-1.66-.123-2.3-.368-.63-.241-1.13-.57-1.51-.988a3.16 3.16 0 0 1-.73-1.408l2.55-.342c.08.198.2.383.37.555.16.172.39.31.66.413.28.108.62.162 1.02.162.6 0 1.09-.147 1.48-.44.39-.288.59-.772.59-1.452v-1.814h-.12c-.12.275-.3.536-.54.781-.24.245-.55.446-.93.6-.38.156-.83.233-1.36.233a4.06 4.06 0 0 1-2.03-.517c-.61-.348-1.09-.88-1.45-1.594-.36-.72-.54-1.627-.54-2.725 0-1.124.18-2.062.55-2.815.36-.753.85-1.317 1.46-1.692a3.769 3.769 0 0 1 2.01-.561c.55 0 1.02.094 1.39.284.38.185.68.417.9.697.24.275.42.547.54.814h.1v-1.666h2.74v10.014c0 .844-.21 1.55-.62 2.118-.42.568-.99.994-1.72 1.278-.73.288-1.57.433-2.51.433Zm.05-6.134c.45 0 .82-.11 1.13-.33.31-.223.54-.542.71-.955.17-.418.25-.917.25-1.498s-.08-1.085-.25-1.51c-.16-.431-.4-.765-.71-1.002-.31-.236-.68-.355-1.13-.355-.45 0-.83.123-1.14.368-.31.241-.54.577-.7 1.008-.16.43-.24.927-.24 1.491 0 .573.08 1.067.24 1.485.16.413.4.734.7.962.31.224.69.336 1.14.336Zm15.06 2.402c-.91 0-1.7-.164-2.36-.491-.66-.327-1.17-.77-1.53-1.33a3.507 3.507 0 0 1-.53-1.885c0-.517.11-.975.31-1.376.21-.4.5-.768.87-1.104.37-.34.8-.678 1.29-1.013l2.56-1.686c.33-.21.58-.432.73-.665.16-.236.23-.493.23-.768 0-.263-.1-.506-.31-.73-.21-.223-.51-.333-.9-.329-.26 0-.48.058-.67.175-.19.111-.34.26-.45.445-.1.18-.15.383-.15.607 0 .275.08.555.23.84.16.283.36.585.62.903.26.314.54.654.85 1.02l6.27 7.193h-2.87l-5.23-5.824c-.35-.392-.69-.8-1.03-1.227-.34-.43-.63-.886-.86-1.368a3.8 3.8 0 0 1-.34-1.582c0-.642.15-1.218.45-1.73.3-.513.72-.918 1.26-1.215.54-.3 1.18-.451 1.9-.451.71 0 1.32.144 1.83.432.51.284.91.663 1.19 1.136.28.47.42.986.42 1.55a3.2 3.2 0 0 1-.47 1.698c-.3.504-.74.956-1.29 1.356l-2.7 1.944c-.37.266-.64.54-.81.82-.18.275-.26.54-.26.794 0 .314.08.596.23.846.16.25.38.447.66.593.28.142.62.213 1 .213.47 0 .92-.105 1.38-.316.45-.215.87-.519 1.24-.91.37-.396.67-.865.89-1.408.23-.542.34-1.143.34-1.801h2.28c0 .81-.09 1.539-.27 2.189a5.88 5.88 0 0 1-.73 1.691c-.32.478-.68.87-1.08 1.175-.13.082-.26.16-.38.233-.12.073-.24.15-.37.232a4.65 4.65 0 0 1-1.65.859c-.6.177-1.2.265-1.79.265Zm-134.66 20.194c0 1.442-.27 2.669-.82 3.681-.54 1.011-1.28 1.784-2.22 2.318-.93.529-1.98.794-3.15.794-1.18 0-2.23-.267-3.16-.801-.94-.534-1.68-1.306-2.22-2.318-.54-1.011-.81-2.236-.81-3.674 0-1.442.27-2.668.81-3.68.54-1.011 1.28-1.782 2.22-2.311.93-.534 1.98-.801 3.16-.801 1.17 0 2.22.267 3.15.801.94.529 1.68 1.3 2.22 2.311.55 1.012.82 2.238.82 3.68Zm-2.83 0c0-.934-.14-1.721-.42-2.363-.28-.641-.67-1.127-1.17-1.459-.51-.331-1.1-.497-1.77-.497-.68 0-1.27.166-1.77.497-.5.332-.9.818-1.18 1.459-.27.642-.41 1.429-.41 2.363 0 .934.14 1.722.41 2.364.28.641.68 1.127 1.18 1.459.5.331 1.09.497 1.77.497.67 0 1.26-.166 1.77-.497.5-.332.89-.818 1.17-1.459.28-.642.42-1.43.42-2.364Zm4.76 10.331v-13.636h2.71v1.665h.12c.12-.266.3-.538.53-.813.23-.28.53-.512.9-.697.37-.19.84-.284 1.4-.284.72 0 1.39.189 2 .568.61.374 1.1.94 1.46 1.698.37.753.55 1.698.55 2.834 0 1.106-.18 2.041-.53 2.802-.36.758-.84 1.333-1.45 1.724-.61.388-1.29.581-2.04.581-.54 0-.99-.088-1.36-.264a2.752 2.752 0 0 1-.91-.665 3.504 3.504 0 0 1-.55-.82h-.08v5.307h-2.75Zm2.69-8.678c0 .59.08 1.104.25 1.543.16.44.4.782.71 1.027.31.241.68.362 1.13.362.44 0 .82-.123 1.13-.368.31-.25.55-.594.71-1.033.16-.444.24-.954.24-1.531 0-.572-.08-1.076-.24-1.511-.16-.434-.39-.774-.7-1.02-.31-.245-.69-.368-1.14-.368-.45 0-.83.119-1.14.355-.3.237-.54.573-.7 1.008-.17.434-.25.947-.25 1.536Zm14-4.958v2.066h-5.97v-2.066h5.97Zm-4.62-2.376h2.75v9.245c0 .254.04.452.12.594.08.138.18.235.32.291.14.056.31.084.49.084.13 0 .26-.011.39-.032.13-.026.23-.046.3-.058l.43 2.046c-.14.043-.33.093-.58.149-.25.06-.55.097-.91.11-.66.025-1.25-.063-1.75-.265a2.416 2.416 0 0 1-1.15-.943c-.28-.426-.41-.964-.41-1.614v-9.607Zm6.32 12.293v-9.917h2.75V124h-2.75Zm1.38-11.196c-.41 0-.76-.135-1.05-.407a1.308 1.308 0 0 1-.43-.987c0-.379.14-.704.43-.975.29-.276.64-.414 1.05-.414.41 0 .76.138 1.05.414.29.271.44.596.44.975 0 .383-.15.712-.44.987-.29.272-.64.407-1.05.407Zm3.48 11.196v-9.917h2.62v1.749h.12c.21-.581.55-1.039 1.03-1.375.49-.336 1.06-.503 1.73-.503.68 0 1.26.17 1.74.51.48.335.8.792.96 1.368h.1c.2-.568.57-1.022 1.1-1.362.53-.344 1.16-.516 1.89-.516.92 0 1.68.294 2.25.884.58.585.87 1.416.87 2.492V124h-2.74v-6.127c0-.551-.15-.965-.44-1.24-.29-.275-.66-.413-1.1-.413-.5 0-.89.159-1.17.478-.28.314-.42.729-.42 1.246V124h-2.66v-6.185c0-.487-.14-.874-.42-1.163-.28-.288-.64-.432-1.09-.432-.31 0-.58.077-.83.232-.24.151-.43.364-.57.639-.15.272-.22.59-.22.956V124h-2.75Zm16.5 0v-9.917h2.75V124h-2.75Zm1.38-11.196c-.41 0-.76-.135-1.06-.407a1.345 1.345 0 0 1-.43-.987c0-.379.15-.704.43-.975.3-.276.65-.414 1.06-.414.41 0 .75.138 1.04.414.3.271.44.596.44.975 0 .383-.14.712-.44.987-.29.272-.63.407-1.04.407Zm3.43 11.196v-1.64l4.85-6.011v-.071h-4.69v-2.195h8v1.788l-4.55 5.863v.071h4.72V124h-8.33Zm13.17.187c-.63 0-1.19-.11-1.69-.329a2.69 2.69 0 0 1-1.17-.988c-.29-.439-.43-.986-.43-1.64 0-.551.1-1.014.3-1.388.21-.375.48-.676.83-.904.35-.228.74-.4 1.19-.517a8.93 8.93 0 0 1 1.41-.245c.57-.06 1.04-.116 1.39-.168.35-.056.61-.137.77-.245a.54.54 0 0 0 .24-.478v-.039c0-.409-.13-.725-.39-.949-.25-.224-.62-.335-1.08-.335-.5 0-.89.109-1.19.329-.29.215-.48.486-.58.813l-2.54-.206a3.45 3.45 0 0 1 .76-1.563c.38-.443.87-.783 1.47-1.02.6-.241 1.3-.361 2.09-.361.55 0 1.08.064 1.58.193.51.129.96.329 1.35.601.4.271.71.62.94 1.046.22.421.34.927.34 1.517V124h-2.61v-1.375h-.08c-.16.31-.37.583-.64.82-.26.232-.59.415-.96.549-.37.129-.81.193-1.3.193Zm.79-1.898c.4 0 .76-.08 1.07-.239.31-.163.56-.383.73-.658.18-.276.27-.588.27-.937v-1.052c-.09.056-.21.108-.36.155a5.56 5.56 0 0 1-.5.123c-.18.034-.37.066-.55.096l-.5.071c-.33.048-.61.123-.85.226-.24.104-.43.244-.56.42-.14.172-.2.387-.2.646 0 .374.13.66.4.858.28.194.63.291 1.05.291Zm12.12-8.206v2.066h-5.98v-2.066h5.98Zm-4.62-2.376h2.75v9.245c0 .254.04.452.12.594.07.138.18.235.32.291.14.056.3.084.49.084.13 0 .26-.011.39-.032l.29-.058.44 2.046c-.14.043-.33.093-.58.149-.25.06-.56.097-.91.11-.67.025-1.25-.063-1.75-.265a2.416 2.416 0 0 1-1.15-.943c-.28-.426-.42-.964-.41-1.614v-9.607Zm6.32 12.293v-9.917h2.75V124h-2.75Zm1.38-11.196c-.41 0-.76-.135-1.05-.407a1.318 1.318 0 0 1-.44-.987c0-.379.15-.704.44-.975.29-.276.64-.414 1.05-.414.41 0 .76.138 1.04.414.3.271.44.596.44.975 0 .383-.14.712-.44.987-.28.272-.63.407-1.04.407Zm7.96 11.39c-1 0-1.87-.213-2.6-.64a4.39 4.39 0 0 1-1.69-1.794c-.39-.771-.59-1.664-.59-2.68 0-1.024.2-1.92.59-2.686.4-.77.96-1.369 1.69-1.795.73-.43 1.6-.645 2.6-.645s1.87.215 2.6.645a4.345 4.345 0 0 1 1.69 1.795c.39.766.59 1.662.59 2.686 0 1.016-.2 1.909-.59 2.68a4.39 4.39 0 0 1-1.69 1.794c-.73.427-1.6.64-2.6.64Zm.01-2.131c.46 0 .84-.129 1.15-.387.3-.263.53-.62.69-1.072.16-.452.24-.967.24-1.543 0-.577-.08-1.091-.24-1.543-.16-.452-.39-.81-.69-1.072-.31-.263-.69-.394-1.15-.394-.46 0-.84.131-1.16.394-.31.262-.54.62-.7 1.072-.16.452-.24.966-.24 1.543 0 .576.08 1.091.24 1.543.16.452.39.809.7 1.072.32.258.7.387 1.16.387Zm9.32-3.796V124h-2.75v-9.917h2.62v1.749h.12c.22-.576.58-1.033 1.1-1.368.52-.34 1.14-.51 1.88-.51.69 0 1.29.15 1.8.451.51.302.91.732 1.2 1.292.28.555.42 1.218.42 1.988V124h-2.75v-5.824c.01-.607-.15-1.08-.46-1.42-.32-.345-.75-.517-1.3-.517-.37 0-.7.08-.98.239-.28.159-.5.392-.66.697-.16.302-.24.665-.24 1.092Z"/><path stroke="#B96AFF" stroke-width="3.998" d="M210.004 3.788c135.281 0 164.718 173.485 300 173.485 135.281 0 164.718-173.485 300-173.485 135.281 0 164.718 173.485 299.996 173.485 135.29 0 164.72-173.485 300-173.485 135.29 0 164.72 173.485 300 173.485M210 3.788c-135.282 0-164.719 173.485-300 173.485-135.282 0-164.719-173.485-300-173.485-135.282 0-164.719 173.485-300 173.485-135.282 0-164.719-173.485-300-173.485-135.28 0-164.72 173.485-300 173.485"/><path stroke="#3D38F5" stroke-width="3.998" d="M1710 3.788c-135.28 0-164.72 173.485-300 173.485S1245.28 3.788 1110 3.788c-135.282 0-164.719 173.485-300 173.485-135.282 0-164.719-173.485-300-173.485-135.282 0-164.719 173.485-300 173.485"/><path stroke="#3D38F5" stroke-width="3.998" d="M-1290 3.788c135.29 0 164.72 173.485 300.003 173.485 135.282 0 164.719-173.485 300-173.485 135.282 0 164.719 173.485 300.001 173.485 135.281 0 164.718-173.485 300-173.485 135.281 0 164.718 173.485 300 173.485"/><path stroke="#B96AFF" stroke-width="3.998" d="M3210 3.788c-135.28 0-164.72 173.485-300 173.485S2745.28 3.788 2610 3.788s-164.72 173.485-300 173.485S2145.28 3.788 2010 3.788s-164.72 173.485-300 173.485"/><path stroke="#3D38F5" stroke-width="3.998" d="M1710 3.788c135.29 0 164.72 173.485 300 173.485 135.29 0 164.72-173.485 300-173.485 135.29 0 164.72 173.485 300 173.485 135.29 0 164.72-173.485 300-173.485 135.29 0 164.72 173.485 300 173.485"/><path fill="url(#b)" d="M0 0h210v177H0z"/><path fill="url(#c)" d="M0 0h210v177H0z" transform="matrix(-1 0 0 1 1920 0)"/></g><defs><linearGradient id="b" x1="0" x2="210" y1="88.5" y2="88.5" gradientUnits="userSpaceOnUse"><stop stop-color="#fff"/><stop offset=".654" stop-color="#fff" stop-opacity=".178"/><stop offset=".865" stop-color="#fff" stop-opacity=".054"/><stop offset="1" stop-color="#fff" stop-opacity="0"/></linearGradient><linearGradient id="c" x1="0" x2="210" y1="88.5" y2="88.5" gradientUnits="userSpaceOnUse"><stop stop-color="#fff"/><stop offset=".654" stop-color="#fff" stop-opacity=".178"/><stop offset=".865" stop-color="#fff" stop-opacity=".054"/><stop offset="1" stop-color="#fff" stop-opacity="0"/></linearGradient><clipPath id="a"><path fill="#fff" d="M0 0h1920v181H0z"/></clipPath></defs></svg>