<svg width="1918" height="179" viewBox="0 0 1918 179" fill="none" xmlns="http://www.w3.org/2000/svg">
  <path d="M2 37C95 123 114 177 210 177C361 177 361 3 512 3C663 3 663 177 814 177C965 177 965 3 1116 3C1267 3 1267 177 1418 177C1569 177 1569 3 1720 3C1817 3 1834 58 1916 141" stroke="#3832F4" stroke-width="4"/>
  <path d="M2 141C95 58 112 3 210 3C361 3 361 177 512 177C663 177 663 3 814 3C965 3 965 177 1116 177C1267 177 1267 3 1418 3C1569 3 1569 177 1720 177C1818 177 1835 124 1916 37" stroke="#BE66FF" stroke-width="4"/>
  <rect width="210" height="179" fill="url(#leftFade)"/>
  <rect x="1708" width="210" height="179" fill="url(#rightFade)"/>
  <defs>
    <linearGradient id="leftFade" x1="0" y1="89.5" x2="210" y2="89.5" gradientUnits="userSpaceOnUse">
      <stop stop-color="white"/>
      <stop offset="1" stop-color="white" stop-opacity="0"/>
    </linearGradient>
    <linearGradient id="rightFade" x1="1918" y1="89.5" x2="1708" y2="89.5" gradientUnits="userSpaceOnUse">
      <stop stop-color="white"/>
      <stop offset="1" stop-color="white" stop-opacity="0"/>
    </linearGradient>
  </defs>
</svg>
